<?xml version="1.0" encoding="UTF-8" standalone="no"?>
<!-- Created with Inkscape (http://www.inkscape.org/) -->

<svg
   xmlns:dc="http://purl.org/dc/elements/1.1/"
   xmlns:cc="http://creativecommons.org/ns#"
   xmlns:rdf="http://www.w3.org/1999/02/22-rdf-syntax-ns#"
   xmlns:svg="http://www.w3.org/2000/svg"
   xmlns="http://www.w3.org/2000/svg"
   xmlns:sodipodi="http://sodipodi.sourceforge.net/DTD/sodipodi-0.dtd"
   xmlns:inkscape="http://www.inkscape.org/namespaces/inkscape"
   id="svg8284"
   version="1.1"
   inkscape:version="0.91 r13725"
   xml:space="preserve"
   width="563.57141"
   height="331.18576"
   viewBox="0 0 563.57141 331.18576"
   sodipodi:docname="configuration.svg"><metadata
     id="metadata8290"><rdf:RDF><cc:Work
         rdf:about=""><dc:format>image/svg+xml</dc:format><dc:type
           rdf:resource="http://purl.org/dc/dcmitype/StillImage" /><dc:title></dc:title></cc:Work></rdf:RDF></metadata><defs
     id="defs8288" /><sodipodi:namedview
     pagecolor="#ffffff"
     bordercolor="#666666"
     borderopacity="1"
     objecttolerance="10"
     gridtolerance="10"
     guidetolerance="10"
     inkscape:pageopacity="0"
     inkscape:pageshadow="2"
     inkscape:window-width="1855"
     inkscape:window-height="1176"
     id="namedview8286"
     showgrid="false"
     inkscape:zoom="3.4930538"
     inkscape:cx="385.75616"
     inkscape:cy="200.97501"
     inkscape:window-x="65"
     inkscape:window-y="24"
     inkscape:window-maximized="1"
     inkscape:current-layer="g8292" /><g
     id="g8292"
     inkscape:groupmode="layer"
     inkscape:label="configuration"
     transform="matrix(1.25,0,0,-1.25,0,331.18576)"><g
       id="g8294"><g
         id="g8296"
         transform="matrix(1,0,0,-1,0,264.94861)"><path
           d="M 229.43,182.547 395.715,87.117"
           style="fill:none;stroke:#d7d7d7;stroke-width:0.80000001;stroke-linecap:butt;stroke-linejoin:miter;stroke-miterlimit:4;stroke-dasharray:4.8, 4.8;stroke-dashoffset:0;stroke-opacity:1"
           id="path8298"
           inkscape:connector-curvature="0" /></g><path
         d="m 341.285,178.285 53.57,59.714 0.575,3.286 -5.715,5.429 -6.145,3.145 -4.425,-0.86 -4.575,-8.14 -34.285,-62.574 1,0 z"
         style="fill:#a0dfff;fill-opacity:0.42713599;fill-rule:evenodd;stroke:none"
         id="path8300"
         inkscape:connector-curvature="0" /><g
         id="g8302"
         transform="matrix(1,0,0,-1,0,264.94861)"><path
           d="m 0,87.117 450.855,0"
           style="fill:none;stroke:#000000;stroke-width:0.80000001;stroke-linecap:butt;stroke-linejoin:miter;stroke-miterlimit:4;stroke-dasharray:none;stroke-opacity:1"
           id="path8304"
           inkscape:connector-curvature="0" /></g><g
         id="g8306"
         transform="matrix(1,0,0,-1,0,264.94861)"><path
           d="m 76.07,87.117 0,-61.14"
           style="fill:none;stroke:#000000;stroke-width:0.80000001;stroke-linecap:butt;stroke-linejoin:miter;stroke-miterlimit:4;stroke-dasharray:none;stroke-opacity:1"
           id="path8308"
           inkscape:connector-curvature="0" /></g><g
         id="g8310"
         transform="matrix(0,-1,-1,0,0,264.94861)"><path
           d="m 33.977,-76.07 3.199,-3.2 -11.199,3.2 11.199,3.199 -3.199,-3.199 z"
           style="fill:#000000;fill-opacity:1;fill-rule:evenodd;stroke:#000000;stroke-width:0.80000001;stroke-linecap:butt;stroke-linejoin:miter;stroke-miterlimit:4;stroke-dasharray:none;stroke-opacity:1"
           id="path8312"
           inkscape:connector-curvature="0" /></g><g
         id="g8314"
         transform="matrix(1,0,0,-1,0,264.94861)"><path
           d="M 76,87.117 30.855,43.688"
           style="fill:none;stroke:#000000;stroke-width:0.80000001;stroke-linecap:butt;stroke-linejoin:miter;stroke-miterlimit:4;stroke-dasharray:none;stroke-opacity:1"
           id="path8316"
           inkscape:connector-curvature="0" /></g><g
         id="g8318"
         transform="matrix(1,-0.962025,-0.962025,-1,0,264.94861)"><path
           d="M 43.618,7.273 45.926,4.966 37.852,7.273 45.926,9.579 43.618,7.273 Z"
           style="fill:#000000;fill-opacity:1;fill-rule:evenodd;stroke:#000000;stroke-width:0.57652599;stroke-linecap:butt;stroke-linejoin:miter;stroke-miterlimit:4;stroke-dasharray:none;stroke-opacity:1"
           id="path8320"
           inkscape:connector-curvature="0" /></g><g
         id="g8322"
         transform="matrix(1,0,0,-1,0,264.94861)"><path
           d="m 341.145,87.688 0,-61.711"
           style="fill:none;stroke:#000000;stroke-width:0.80000001;stroke-linecap:butt;stroke-linejoin:miter;stroke-miterlimit:4;stroke-dasharray:none;stroke-opacity:1"
           id="path8324"
           inkscape:connector-curvature="0" /></g><g
         id="g8326"
         transform="matrix(0,-1,-1,0,0,264.94861)"><path
           d="m 33.977,-341.145 3.199,-3.199 -11.199,3.199 11.199,3.204 -3.199,-3.204 z"
           style="fill:#000000;fill-opacity:1;fill-rule:evenodd;stroke:#000000;stroke-width:0.80000001;stroke-linecap:butt;stroke-linejoin:miter;stroke-miterlimit:4;stroke-dasharray:none;stroke-opacity:1"
           id="path8328"
           inkscape:connector-curvature="0" /></g><g
         id="g8330"
         transform="matrix(1,0,0,-1,0,264.94861)"><path
           d="m 76,86.547 17.145,114.855 74.855,34.86 61.715,-53.715 78.855,41.715 106.86,-34.285"
           style="fill:none;stroke:#000000;stroke-width:0.80000001;stroke-linecap:butt;stroke-linejoin:miter;stroke-miterlimit:4;stroke-dasharray:none;stroke-opacity:1"
           id="path8332"
           inkscape:connector-curvature="0" /></g><g
         id="g8334"
         transform="matrix(1,0,0,-1,0,264.94861)"><path
           d="m 340.57,87.117 0,71.43"
           style="fill:none;stroke:#000000;stroke-width:0.80000001;stroke-linecap:butt;stroke-linejoin:miter;stroke-miterlimit:4;stroke-dasharray:none;stroke-opacity:1"
           id="path8336"
           inkscape:connector-curvature="0" /></g><g
         id="g8338"
         transform="matrix(1,0,0,-1,0,264.94861)"><path
           d="M 309.145,224.262 340.57,86.547"
           style="fill:none;stroke:#000000;stroke-width:0.80000001;stroke-linecap:butt;stroke-linejoin:miter;stroke-miterlimit:4;stroke-dasharray:none;stroke-opacity:1"
           id="path8340"
           inkscape:connector-curvature="0" /></g><g
         id="g8342"
         transform="matrix(-0.228216,-1,-1,0.228216,0,264.94861)"><path
           d="m 16.183,-342.486 3.12,-3.119 -10.916,3.121 10.918,3.117 -3.122,-3.119 z"
           style="fill:#000000;fill-opacity:1;fill-rule:evenodd;stroke:#000000;stroke-width:0.77994698;stroke-linecap:butt;stroke-linejoin:miter;stroke-miterlimit:4;stroke-dasharray:none;stroke-opacity:1"
           id="path8344"
           inkscape:connector-curvature="0" /></g><g
         id="g8346"
         transform="matrix(1,0,0,-1,0,264.94861)"><path
           d="m 341.145,85.977 44.57,-62.43"
           style="fill:none;stroke:#000000;stroke-width:0.80000001;stroke-linecap:butt;stroke-linejoin:miter;stroke-miterlimit:4;stroke-dasharray:none;stroke-opacity:1"
           id="path8348"
           inkscape:connector-curvature="0" /></g><g
         id="g8350"
         transform="matrix(-0.713959,-1,-1,0.713959,0,264.94861)"><path
           d="m -160.298,-266.621 2.602,-2.603 -9.113,2.604 9.115,2.606 -2.604,-2.607 z"
           style="fill:#000000;fill-opacity:1;fill-rule:evenodd;stroke:#000000;stroke-width:0.65108699;stroke-linecap:butt;stroke-linejoin:miter;stroke-miterlimit:4;stroke-dasharray:none;stroke-opacity:1"
           id="path8352"
           inkscape:connector-curvature="0" /></g><path
         d="m 31.098,206.902 c -0.164,-0.149 -0.664,-0.621 -0.664,-0.809 0,-0.137 0.125,-0.258 0.257,-0.258 0.121,0 0.176,0.082 0.27,0.215 0.324,0.406 0.691,0.664 1,0.84 0.137,0.078 0.23,0.121 0.23,0.27 0,0.121 -0.109,0.187 -0.187,0.257 -0.379,0.254 -0.473,0.621 -0.516,0.782 -0.039,0.109 -0.082,0.269 -0.269,0.269 -0.082,0 -0.242,-0.051 -0.242,-0.254 0,-0.121 0.082,-0.445 0.335,-0.812 l -4.539,0 c -0.23,0 -0.457,0 -0.457,-0.258 0,-0.242 0.243,-0.242 0.457,-0.242 l 4.325,0 z"
         style="fill:#000000;fill-opacity:1;fill-rule:nonzero;stroke:none"
         id="path8354"
         inkscape:connector-curvature="0" /><path
         d="m 31.879,203.917 c 0,0.391 -0.109,0.891 -0.582,0.891 -0.27,0 -0.578,-0.336 -0.578,-0.605 0,-0.125 0.054,-0.204 0.16,-0.325 0.203,-0.23 0.461,-0.597 0.461,-1.23 0,-0.488 -0.297,-1.258 -0.516,-1.676 -0.375,-0.742 -1,-1.379 -1.699,-1.379 -0.852,0 -1.176,0.543 -1.324,1.297 0.148,0.352 0.457,1.23 0.457,1.582 0,0.148 -0.055,0.27 -0.227,0.27 -0.097,0 -0.203,-0.055 -0.273,-0.161 -0.188,-0.3 -0.363,-1.367 -0.352,-1.648 -0.254,-0.5 -0.984,-1.34 -1.847,-1.34 -0.907,0 -1.149,0.797 -1.149,1.567 0,1.406 0.875,2.636 1.121,2.972 0.133,0.203 0.231,0.34 0.231,0.367 0,0.094 -0.055,0.243 -0.176,0.243 -0.219,0 -0.285,-0.176 -0.395,-0.34 -0.687,-1.067 -1.175,-2.567 -1.175,-3.864 0,-0.835 0.312,-1.835 1.324,-1.835 1.121,0 1.824,0.96 2.109,1.472 0.106,-0.758 0.512,-1.472 1.5,-1.472 1.028,0 1.676,0.906 2.16,2 0.352,0.781 0.77,2.472 0.77,3.214 z"
         style="fill:#000000;fill-opacity:1;fill-rule:nonzero;stroke:none"
         id="path8356"
         inkscape:connector-curvature="0" /><path
         d="m 34.746,202.429 c 0,0.199 -0.144,0.344 -0.351,0.344 -0.235,0 -0.497,-0.215 -0.497,-0.485 0,-0.199 0.145,-0.343 0.352,-0.343 0.234,0 0.496,0.215 0.496,0.484 z m -1.316,-3.305 -0.485,-1.242 c -0.047,-0.133 -0.09,-0.242 -0.09,-0.394 0,-0.442 0.34,-0.766 0.817,-0.766 0.875,0 1.246,1.262 1.246,1.379 0,0.09 -0.074,0.113 -0.137,0.113 -0.109,0 -0.125,-0.062 -0.152,-0.152 -0.207,-0.719 -0.578,-1.09 -0.938,-1.09 -0.109,0 -0.214,0.047 -0.214,0.289 0,0.215 0.062,0.379 0.179,0.656 0.09,0.246 0.18,0.489 0.278,0.731 l 0.281,0.73 c 0.078,0.207 0.187,0.485 0.187,0.641 0,0.449 -0.359,0.766 -0.82,0.766 -0.871,0 -1.25,-1.262 -1.25,-1.379 0,-0.082 0.063,-0.118 0.133,-0.118 0.117,0 0.129,0.055 0.156,0.145 0.25,0.855 0.664,1.098 0.934,1.098 0.129,0 0.218,-0.047 0.218,-0.297 0,-0.09 -0.011,-0.215 -0.101,-0.489 l -0.242,-0.621 z"
         style="fill:#000000;fill-opacity:1;fill-rule:nonzero;stroke:none"
         id="path8358"
         inkscape:connector-curvature="0" /><path
         d="m 91.277,160.406 c -0.16,-0.149 -0.66,-0.621 -0.66,-0.809 0,-0.137 0.121,-0.258 0.258,-0.258 0.121,0 0.176,0.082 0.27,0.215 0.324,0.406 0.687,0.664 1,0.84 0.132,0.082 0.23,0.121 0.23,0.269 0,0.122 -0.109,0.188 -0.191,0.258 -0.379,0.254 -0.473,0.621 -0.512,0.782 -0.043,0.109 -0.082,0.269 -0.27,0.269 -0.082,0 -0.246,-0.051 -0.246,-0.254 0,-0.121 0.082,-0.445 0.34,-0.812 l -4.539,0 c -0.23,0 -0.461,0 -0.461,-0.254 0,-0.246 0.242,-0.246 0.461,-0.246 l 4.32,0 z"
         style="fill:#000000;fill-opacity:1;fill-rule:nonzero;stroke:none"
         id="path8360"
         inkscape:connector-curvature="0" /><path
         d="m 92.062,157.421 c 0,0.391 -0.109,0.891 -0.582,0.891 -0.269,0 -0.582,-0.336 -0.582,-0.606 0,-0.125 0.055,-0.203 0.164,-0.324 0.204,-0.23 0.458,-0.597 0.458,-1.23 0,-0.489 -0.297,-1.258 -0.512,-1.676 -0.379,-0.742 -1,-1.379 -1.703,-1.379 -0.852,0 -1.176,0.543 -1.325,1.297 0.149,0.351 0.461,1.23 0.461,1.582 0,0.148 -0.054,0.269 -0.23,0.269 -0.094,0 -0.203,-0.054 -0.27,-0.16 -0.191,-0.297 -0.367,-1.367 -0.351,-1.648 -0.258,-0.5 -0.988,-1.34 -1.852,-1.34 -0.906,0 -1.148,0.797 -1.148,1.566 0,1.407 0.879,2.637 1.121,2.973 0.137,0.203 0.23,0.34 0.23,0.367 0,0.094 -0.054,0.242 -0.175,0.242 -0.215,0 -0.286,-0.175 -0.391,-0.339 -0.691,-1.067 -1.176,-2.567 -1.176,-3.864 0,-0.836 0.309,-1.836 1.324,-1.836 1.122,0 1.825,0.961 2.106,1.473 0.109,-0.758 0.516,-1.473 1.5,-1.473 1.027,0 1.676,0.907 2.164,2 0.348,0.782 0.769,2.473 0.769,3.215 z"
         style="fill:#000000;fill-opacity:1;fill-rule:nonzero;stroke:none"
         id="path8362"
         inkscape:connector-curvature="0" /><path
         d="m 95.07,156.054 c 0,0.242 -0.019,0.25 -0.261,0.25 -0.368,-0.359 -0.848,-0.574 -1.704,-0.574 l 0,-0.301 c 0.247,0 0.731,0 1.254,0.246 l 0,-4.621 c 0,-0.332 -0.027,-0.441 -0.882,-0.441 l -0.317,0 0,-0.297 c 0.371,0.027 1.145,0.027 1.551,0.027 0.406,0 1.187,0 1.559,-0.027 l 0,0.297 -0.317,0 c -0.855,0 -0.883,0.109 -0.883,0.441 l 0,5 z"
         style="fill:#000000;fill-opacity:1;fill-rule:nonzero;stroke:none"
         id="path8364"
         inkscape:connector-curvature="0" /><path
         d="m 99.551,152.152 c 0.14,0.136 0.519,0.433 0.664,0.558 0.558,0.516 1.09,1.008 1.09,1.828 0,1.075 -0.899,1.766 -2.028,1.766 -1.078,0 -1.789,-0.82 -1.789,-1.621 0,-0.441 0.352,-0.504 0.477,-0.504 0.187,0 0.469,0.137 0.469,0.477 0,0.468 -0.454,0.468 -0.559,0.468 0.262,0.657 0.863,0.883 1.305,0.883 0.836,0 1.269,-0.711 1.269,-1.469 0,-0.937 -0.656,-1.621 -1.719,-2.71 l -1.136,-1.168 c -0.106,-0.102 -0.106,-0.118 -0.106,-0.344 l 3.555,0 0.262,1.613 -0.278,0 c -0.027,-0.184 -0.101,-0.633 -0.207,-0.805 -0.054,-0.07 -0.738,-0.07 -0.882,-0.07 l -1.606,0 1.219,1.098 z"
         style="fill:#000000;fill-opacity:1;fill-rule:nonzero;stroke:none"
         id="path8366"
         inkscape:connector-curvature="0" /><path
         d="m 317.699,160.031 c -0.164,-0.149 -0.664,-0.621 -0.664,-0.809 0,-0.137 0.125,-0.258 0.258,-0.258 0.121,0 0.176,0.082 0.269,0.215 0.325,0.406 0.692,0.664 1,0.84 0.137,0.078 0.231,0.121 0.231,0.269 0,0.122 -0.109,0.188 -0.188,0.258 -0.378,0.254 -0.472,0.621 -0.515,0.782 -0.039,0.109 -0.082,0.269 -0.27,0.269 -0.082,0 -0.242,-0.051 -0.242,-0.254 0,-0.121 0.078,-0.445 0.336,-0.812 l -4.539,0 c -0.23,0 -0.457,0 -0.457,-0.258 0,-0.242 0.242,-0.242 0.457,-0.242 l 4.324,0 z"
         style="fill:#000000;fill-opacity:1;fill-rule:nonzero;stroke:none"
         id="path8368"
         inkscape:connector-curvature="0" /><path
         d="m 318.48,157.046 c 0,0.391 -0.109,0.891 -0.582,0.891 -0.269,0 -0.578,-0.336 -0.578,-0.606 0,-0.125 0.055,-0.203 0.16,-0.324 0.204,-0.23 0.461,-0.597 0.461,-1.23 0,-0.489 -0.296,-1.258 -0.515,-1.676 -0.375,-0.742 -1,-1.379 -1.699,-1.379 -0.852,0 -1.176,0.543 -1.325,1.297 0.149,0.351 0.457,1.23 0.457,1.582 0,0.148 -0.054,0.269 -0.23,0.269 -0.094,0 -0.199,-0.054 -0.27,-0.16 -0.187,-0.3 -0.363,-1.367 -0.351,-1.648 -0.254,-0.5 -0.985,-1.34 -1.848,-1.34 -0.906,0 -1.148,0.797 -1.148,1.566 0,1.407 0.875,2.637 1.121,2.973 0.133,0.203 0.226,0.34 0.226,0.367 0,0.094 -0.05,0.242 -0.175,0.242 -0.215,0 -0.282,-0.175 -0.391,-0.339 -0.688,-1.067 -1.176,-2.567 -1.176,-3.864 0,-0.836 0.313,-1.836 1.324,-1.836 1.121,0 1.825,0.961 2.11,1.473 0.105,-0.758 0.511,-1.473 1.5,-1.473 1.023,0 1.672,0.907 2.16,2 0.351,0.782 0.769,2.473 0.769,3.215 z"
         style="fill:#000000;fill-opacity:1;fill-rule:nonzero;stroke:none"
         id="path8370"
         inkscape:connector-curvature="0" /><path
         d="m 321.203,151.777 c 0.145,0.136 0.52,0.433 0.664,0.558 0.559,0.516 1.09,1.008 1.09,1.828 0,1.071 -0.898,1.766 -2.023,1.766 -1.082,0 -1.793,-0.82 -1.793,-1.621 0,-0.441 0.351,-0.504 0.476,-0.504 0.188,0 0.469,0.133 0.469,0.477 0,0.468 -0.449,0.468 -0.559,0.468 0.262,0.657 0.864,0.883 1.305,0.883 0.84,0 1.27,-0.711 1.27,-1.469 0,-0.937 -0.657,-1.621 -1.719,-2.71 l -1.137,-1.172 c -0.105,-0.098 -0.105,-0.118 -0.105,-0.34 l 3.554,0 0.262,1.613 -0.277,0 c -0.028,-0.184 -0.098,-0.633 -0.207,-0.805 -0.055,-0.07 -0.739,-0.07 -0.883,-0.07 l -1.602,0 1.215,1.098 z"
         style="fill:#000000;fill-opacity:1;fill-rule:nonzero;stroke:none"
         id="path8372"
         inkscape:connector-curvature="0" /><path
         d="m 326.258,155.675 c 0,0.246 -0.02,0.254 -0.262,0.254 -0.371,-0.359 -0.848,-0.578 -1.703,-0.578 l 0,-0.297 c 0.242,0 0.73,0 1.254,0.246 l 0,-4.621 c 0,-0.332 -0.027,-0.441 -0.883,-0.441 l -0.316,0 0,-0.297 c 0.371,0.027 1.144,0.027 1.55,0.027 0.403,0 1.188,0 1.555,-0.027 l 0,0.297 -0.312,0 c -0.856,0 -0.883,0.109 -0.883,0.441 l 0,4.996 z"
         style="fill:#000000;fill-opacity:1;fill-rule:nonzero;stroke:none"
         id="path8374"
         inkscape:connector-curvature="0" /><path
         d="m 364.094,193.081 c -0.16,-0.148 -0.66,-0.621 -0.66,-0.808 0,-0.137 0.121,-0.258 0.254,-0.258 0.121,0 0.175,0.082 0.273,0.215 0.324,0.406 0.687,0.664 0.996,0.84 0.137,0.078 0.231,0.121 0.231,0.269 0,0.121 -0.106,0.188 -0.188,0.258 -0.379,0.254 -0.473,0.621 -0.516,0.781 -0.039,0.11 -0.078,0.27 -0.269,0.27 -0.082,0 -0.242,-0.055 -0.242,-0.254 0,-0.125 0.082,-0.449 0.336,-0.813 l -4.539,0 c -0.227,0 -0.458,0 -0.458,-0.257 0,-0.243 0.243,-0.243 0.458,-0.243 l 4.324,0 z"
         style="fill:#000000;fill-opacity:1;fill-rule:nonzero;stroke:none"
         id="path8376"
         inkscape:connector-curvature="0" /><path
         d="m 364.875,190.097 c 0,0.391 -0.105,0.891 -0.578,0.891 -0.274,0 -0.582,-0.336 -0.582,-0.61 0,-0.121 0.055,-0.199 0.16,-0.324 0.203,-0.226 0.461,-0.594 0.461,-1.226 0,-0.489 -0.297,-1.258 -0.512,-1.676 -0.379,-0.742 -1,-1.379 -1.703,-1.379 -0.851,0 -1.176,0.539 -1.324,1.297 0.148,0.351 0.461,1.23 0.461,1.582 0,0.148 -0.055,0.269 -0.231,0.269 -0.093,0 -0.203,-0.054 -0.269,-0.164 -0.192,-0.297 -0.367,-1.363 -0.352,-1.648 -0.258,-0.496 -0.988,-1.336 -1.851,-1.336 -0.907,0 -1.149,0.797 -1.149,1.566 0,1.406 0.879,2.637 1.121,2.973 0.137,0.203 0.231,0.34 0.231,0.363 0,0.098 -0.055,0.246 -0.176,0.246 -0.219,0 -0.285,-0.176 -0.394,-0.34 -0.688,-1.066 -1.172,-2.566 -1.172,-3.863 0,-0.836 0.308,-1.836 1.324,-1.836 1.121,0 1.82,0.957 2.105,1.473 0.11,-0.758 0.512,-1.473 1.5,-1.473 1.028,0 1.676,0.906 2.16,2 0.352,0.781 0.77,2.473 0.77,3.215 z"
         style="fill:#000000;fill-opacity:1;fill-rule:nonzero;stroke:none"
         id="path8378"
         inkscape:connector-curvature="0" /><path
         d="m 369.543,185.406 c 0,0.882 -0.629,1.554 -1.566,1.554 -1.282,0 -2.524,-1.242 -2.524,-2.5 0,-0.922 0.649,-1.558 1.567,-1.558 1.289,0 2.523,1.258 2.523,2.504 z m -2.512,-2.254 c -0.316,0 -0.847,0.164 -0.847,0.992 0,0.367 0.171,1.34 0.605,1.898 0.438,0.571 0.934,0.668 1.18,0.668 0.367,0 0.843,-0.226 0.843,-0.98 0,-0.363 -0.16,-1.219 -0.503,-1.758 -0.332,-0.512 -0.829,-0.82 -1.278,-0.82 z"
         style="fill:#000000;fill-opacity:1;fill-rule:nonzero;stroke:none"
         id="path8380"
         inkscape:connector-curvature="0" /><path
         d="m 87.25,222.66 c -0.164,-0.149 -0.664,-0.622 -0.664,-0.809 0,-0.137 0.121,-0.258 0.258,-0.258 0.121,0 0.176,0.082 0.269,0.215 0.325,0.406 0.688,0.664 1,0.84 0.133,0.082 0.231,0.121 0.231,0.269 0,0.121 -0.11,0.188 -0.192,0.258 -0.379,0.254 -0.472,0.621 -0.511,0.781 -0.043,0.11 -0.082,0.274 -0.27,0.274 -0.082,0 -0.246,-0.055 -0.246,-0.258 0,-0.121 0.082,-0.445 0.34,-0.812 l -4.539,0 c -0.231,0 -0.461,0 -0.461,-0.254 0,-0.246 0.246,-0.246 0.461,-0.246 l 4.324,0 z"
         style="fill:#000000;fill-opacity:1;fill-rule:nonzero;stroke:none"
         id="path8382"
         inkscape:connector-curvature="0" /><path
         d="m 83.203,218.554 c 0.027,0.082 0.363,0.758 0.863,1.188 0.352,0.324 0.809,0.543 1.336,0.543 0.543,0 0.731,-0.407 0.731,-0.946 0,-0.773 -0.555,-2.312 -0.824,-3.043 -0.121,-0.324 -0.188,-0.5 -0.188,-0.742 0,-0.605 0.418,-1.094 1.067,-1.094 1.257,0 1.73,1.985 1.73,2.067 0,0.07 -0.055,0.121 -0.137,0.121 -0.121,0 -0.136,-0.039 -0.203,-0.27 -0.308,-1.105 -0.824,-1.648 -1.351,-1.648 -0.133,0 -0.352,0.015 -0.352,0.445 0,0.34 0.148,0.746 0.23,0.934 0.27,0.742 0.84,2.258 0.84,3.027 0,0.809 -0.472,1.418 -1.5,1.418 -1.203,0 -1.84,-0.851 -2.082,-1.191 -0.039,0.773 -0.593,1.191 -1.187,1.191 -0.434,0 -0.731,-0.258 -0.961,-0.715 -0.242,-0.488 -0.43,-1.297 -0.43,-1.351 0,-0.055 0.051,-0.121 0.149,-0.121 0.105,0 0.121,0.011 0.199,0.324 0.219,0.824 0.461,1.594 1,1.594 0.312,0 0.422,-0.219 0.422,-0.622 0,-0.3 -0.137,-0.824 -0.231,-1.246 l -0.379,-1.457 c -0.054,-0.257 -0.203,-0.863 -0.269,-1.109 -0.094,-0.352 -0.242,-0.984 -0.242,-1.051 0,-0.191 0.148,-0.34 0.347,-0.34 0.164,0 0.352,0.082 0.461,0.285 0.028,0.067 0.149,0.54 0.215,0.809 l 0.297,1.215 0.449,1.785 z"
         style="fill:#000000;fill-opacity:1;fill-rule:nonzero;stroke:none"
         id="path8384"
         inkscape:connector-curvature="0" /><path
         d="m 90.969,218.191 c 0,0.195 -0.145,0.34 -0.352,0.34 -0.234,0 -0.496,-0.215 -0.496,-0.485 0,-0.199 0.145,-0.343 0.352,-0.343 0.234,0 0.496,0.214 0.496,0.488 z m -1.317,-3.309 -0.484,-1.242 c -0.047,-0.133 -0.09,-0.242 -0.09,-0.395 0,-0.441 0.34,-0.765 0.82,-0.765 0.872,0 1.243,1.262 1.243,1.379 0,0.09 -0.075,0.117 -0.137,0.117 -0.106,0 -0.125,-0.066 -0.152,-0.156 -0.207,-0.719 -0.579,-1.09 -0.938,-1.09 -0.105,0 -0.215,0.047 -0.215,0.289 0,0.219 0.063,0.379 0.18,0.66 0.09,0.242 0.18,0.484 0.281,0.727 l 0.278,0.73 c 0.082,0.207 0.187,0.488 0.187,0.641 0,0.449 -0.359,0.765 -0.816,0.765 -0.875,0 -1.254,-1.261 -1.254,-1.379 0,-0.082 0.062,-0.117 0.136,-0.117 0.118,0 0.125,0.055 0.153,0.145 0.25,0.855 0.668,1.097 0.937,1.097 0.125,0 0.215,-0.043 0.215,-0.296 0,-0.09 -0.008,-0.215 -0.098,-0.485 l -0.246,-0.625 z"
         style="fill:#000000;fill-opacity:1;fill-rule:nonzero;stroke:none"
         id="path8386"
         inkscape:connector-curvature="0" /><path
         d="m 329.684,237.206 c -0.164,-0.148 -0.664,-0.621 -0.664,-0.808 0,-0.137 0.125,-0.258 0.257,-0.258 0.121,0 0.176,0.082 0.27,0.215 0.324,0.406 0.691,0.664 1,0.84 0.137,0.078 0.23,0.121 0.23,0.269 0,0.121 -0.109,0.188 -0.187,0.258 -0.379,0.254 -0.473,0.621 -0.516,0.781 -0.039,0.11 -0.082,0.27 -0.269,0.27 -0.082,0 -0.243,-0.051 -0.243,-0.254 0,-0.121 0.083,-0.445 0.336,-0.813 l -4.539,0 c -0.23,0 -0.457,0 -0.457,-0.257 0,-0.243 0.243,-0.243 0.457,-0.243 l 4.325,0 z"
         style="fill:#000000;fill-opacity:1;fill-rule:nonzero;stroke:none"
         id="path8388"
         inkscape:connector-curvature="0" /><path
         d="m 325.637,233.101 c 0.027,0.082 0.367,0.754 0.867,1.187 0.351,0.325 0.808,0.54 1.336,0.54 0.539,0 0.73,-0.403 0.73,-0.946 0,-0.769 -0.554,-2.308 -0.824,-3.039 -0.121,-0.324 -0.191,-0.5 -0.191,-0.742 0,-0.609 0.422,-1.094 1.07,-1.094 1.254,0 1.727,1.985 1.727,2.067 0,0.066 -0.055,0.121 -0.133,0.121 -0.121,0 -0.137,-0.039 -0.203,-0.27 -0.313,-1.109 -0.825,-1.648 -1.352,-1.648 -0.137,0 -0.352,0.015 -0.352,0.445 0,0.34 0.149,0.742 0.231,0.934 0.269,0.742 0.836,2.254 0.836,3.027 0,0.809 -0.473,1.418 -1.5,1.418 -1.199,0 -1.836,-0.852 -2.078,-1.191 -0.043,0.769 -0.594,1.191 -1.192,1.191 -0.429,0 -0.726,-0.258 -0.957,-0.719 -0.242,-0.484 -0.433,-1.297 -0.433,-1.347 0,-0.055 0.054,-0.125 0.148,-0.125 0.11,0 0.121,0.015 0.203,0.324 0.215,0.824 0.461,1.594 1,1.594 0.313,0 0.418,-0.215 0.418,-0.622 0,-0.296 -0.133,-0.824 -0.23,-1.242 l -0.375,-1.457 c -0.055,-0.258 -0.203,-0.867 -0.274,-1.109 -0.093,-0.352 -0.242,-0.985 -0.242,-1.055 0,-0.187 0.149,-0.336 0.352,-0.336 0.164,0 0.351,0.082 0.461,0.285 0.027,0.067 0.148,0.539 0.215,0.809 l 0.296,1.215 0.446,1.785 z"
         style="fill:#000000;fill-opacity:1;fill-rule:nonzero;stroke:none"
         id="path8390"
         inkscape:connector-curvature="0" /><path
         d="m 335.207,229.531 c 0,0.882 -0.633,1.558 -1.566,1.558 -1.282,0 -2.524,-1.246 -2.524,-2.504 0,-0.922 0.649,-1.558 1.567,-1.558 1.289,0 2.523,1.258 2.523,2.504 z m -2.516,-2.254 c -0.312,0 -0.843,0.164 -0.843,0.992 0,0.367 0.172,1.34 0.601,1.898 0.442,0.571 0.938,0.668 1.18,0.668 0.371,0 0.848,-0.226 0.848,-0.98 0,-0.363 -0.165,-1.219 -0.504,-1.758 -0.332,-0.512 -0.828,-0.82 -1.282,-0.82 z"
         style="fill:#000000;fill-opacity:1;fill-rule:nonzero;stroke:none"
         id="path8392"
         inkscape:connector-curvature="0" /><path
         d="m 351.215,214.925 c 0,1.379 -0.43,2.715 -1.539,2.715 -1.891,0 -3.903,-3.957 -3.903,-6.93 0,-0.621 0.133,-2.715 1.551,-2.715 1.84,0 3.891,3.864 3.891,6.93 z m -4.094,-1.902 c 0.203,0.797 0.488,1.93 1.027,2.89 0.446,0.809 0.918,1.457 1.516,1.457 0.445,0 0.742,-0.378 0.742,-1.675 0,-0.485 -0.043,-1.16 -0.433,-2.672 l -2.852,0 z m 2.758,-0.406 c -0.34,-1.325 -0.621,-2.176 -1.109,-3.028 -0.391,-0.687 -0.864,-1.324 -1.43,-1.324 -0.418,0 -0.758,0.324 -0.758,1.664 0,0.875 0.215,1.797 0.434,2.688 l 2.863,0 z"
         style="fill:#000000;fill-opacity:1;fill-rule:nonzero;stroke:none"
         id="path8394"
         inkscape:connector-curvature="0" /><path
         d="m 355.859,208.519 c 0,0.883 -0.632,1.559 -1.57,1.559 -1.277,0 -2.519,-1.243 -2.519,-2.504 0,-0.918 0.648,-1.559 1.566,-1.559 1.289,0 2.523,1.262 2.523,2.504 z m -2.515,-2.254 c -0.313,0 -0.844,0.164 -0.844,0.992 0,0.371 0.168,1.344 0.602,1.903 0.441,0.566 0.937,0.664 1.179,0.664 0.371,0 0.848,-0.227 0.848,-0.981 0,-0.359 -0.164,-1.215 -0.504,-1.758 -0.336,-0.511 -0.828,-0.82 -1.281,-0.82 z"
         style="fill:#000000;fill-opacity:1;fill-rule:nonzero;stroke:none"
         id="path8396"
         inkscape:connector-curvature="0" /><path
         d="m 331.23,113.507 c 0,1.379 -0.433,2.715 -1.539,2.715 -1.89,0 -3.906,-3.957 -3.906,-6.93 0,-0.621 0.137,-2.714 1.555,-2.714 1.836,0 3.89,3.863 3.89,6.929 z m -4.093,-1.906 c 0.203,0.797 0.488,1.934 1.027,2.891 0.445,0.812 0.918,1.461 1.512,1.461 0.445,0 0.746,-0.379 0.746,-1.676 0,-0.485 -0.043,-1.16 -0.434,-2.676 l -2.851,0 z m 2.758,-0.406 c -0.34,-1.321 -0.622,-2.172 -1.11,-3.024 -0.39,-0.691 -0.863,-1.324 -1.433,-1.324 -0.418,0 -0.754,0.324 -0.754,1.66 0,0.879 0.214,1.797 0.429,2.688 l 2.868,0 z"
         style="fill:#000000;fill-opacity:1;fill-rule:nonzero;stroke:none"
         id="path8398"
         inkscape:connector-curvature="0" /><path
         d="m 333.926,106.523 c 0.144,0.133 0.523,0.433 0.668,0.558 0.558,0.512 1.09,1.008 1.09,1.829 0,1.07 -0.903,1.765 -2.028,1.765 -1.078,0 -1.793,-0.82 -1.793,-1.621 0,-0.441 0.352,-0.504 0.481,-0.504 0.187,0 0.465,0.133 0.465,0.477 0,0.468 -0.45,0.468 -0.555,0.468 0.258,0.657 0.863,0.883 1.305,0.883 0.836,0 1.269,-0.711 1.269,-1.468 0,-0.938 -0.656,-1.622 -1.719,-2.711 l -1.136,-1.172 c -0.11,-0.098 -0.11,-0.117 -0.11,-0.34 l 3.559,0 0.262,1.609 -0.278,0 c -0.027,-0.179 -0.101,-0.629 -0.211,-0.801 -0.05,-0.07 -0.738,-0.07 -0.879,-0.07 l -1.605,0 1.215,1.098 z"
         style="fill:#000000;fill-opacity:1;fill-rule:nonzero;stroke:none"
         id="path8400"
         inkscape:connector-curvature="0" /><path
         d="m 338.984,110.421 c 0,0.242 -0.019,0.254 -0.261,0.254 -0.371,-0.359 -0.848,-0.578 -1.703,-0.578 l 0,-0.297 c 0.242,0 0.73,0 1.253,0.242 l 0,-4.617 c 0,-0.336 -0.027,-0.441 -0.882,-0.441 l -0.317,0 0,-0.297 c 0.367,0.023 1.145,0.023 1.547,0.023 0.406,0 1.191,0 1.559,-0.023 l 0,0.297 -0.313,0 c -0.855,0 -0.883,0.105 -0.883,0.441 l 0,4.996 z"
         style="fill:#000000;fill-opacity:1;fill-rule:nonzero;stroke:none"
         id="path8402"
         inkscape:connector-curvature="0" /><path
         d="m 69.219,172.515 1.566,1.797 c 0.149,0.176 0.27,0.285 1.391,0.285 l 0,0.582 c -0.758,-0.027 -0.781,-0.027 -1.242,-0.027 -0.391,0 -0.973,0 -1.352,0.027 l 0,-0.582 c 0.258,0 0.539,-0.066 0.539,-0.164 0,-0.023 -0.066,-0.121 -0.094,-0.148 l -1.175,-1.325 -1.336,1.637 0.566,0 0,0.582 c -0.309,-0.027 -1.227,-0.027 -1.594,-0.027 -0.406,0 -1.133,0 -1.511,0.027 l 0,-0.582 0.957,0 2.109,-2.566 -1.758,-1.989 c -0.16,-0.187 -0.254,-0.281 -1.375,-0.281 l 0,-0.582 c 0.809,0.027 0.836,0.027 1.254,0.027 0.391,0 0.961,0 1.34,-0.027 l 0,0.582 c -0.258,0 -0.543,0.067 -0.543,0.16 0,0.016 0,0.028 0.094,0.137 l 1.351,1.527 1.5,-1.824 -0.566,0 0,-0.582 c 0.324,0.027 1.23,0.027 1.605,0.027 0.407,0 1.121,0 1.5,-0.027 l 0,0.582 -0.945,0 -2.281,2.754 z"
         style="fill:#000000;fill-opacity:1;fill-rule:nonzero;stroke:none"
         id="path8404"
         inkscape:connector-curvature="0" /><path
         d="m 75.34,172.773 c 0,0.199 -0.145,0.344 -0.352,0.344 -0.234,0 -0.496,-0.219 -0.496,-0.489 0,-0.199 0.145,-0.34 0.352,-0.34 0.234,0 0.496,0.215 0.496,0.485 z m -1.317,-3.305 -0.484,-1.242 c -0.047,-0.137 -0.09,-0.242 -0.09,-0.398 0,-0.442 0.344,-0.766 0.821,-0.766 0.871,0 1.242,1.262 1.242,1.379 0,0.09 -0.074,0.117 -0.137,0.117 -0.105,0 -0.125,-0.063 -0.152,-0.152 -0.207,-0.723 -0.575,-1.09 -0.938,-1.09 -0.105,0 -0.215,0.043 -0.215,0.289 0,0.215 0.063,0.379 0.18,0.656 0.09,0.242 0.18,0.488 0.281,0.731 l 0.278,0.73 c 0.082,0.207 0.187,0.484 0.187,0.637 0,0.449 -0.359,0.765 -0.816,0.765 -0.875,0 -1.254,-1.261 -1.254,-1.379 0,-0.078 0.062,-0.117 0.136,-0.117 0.118,0 0.126,0.055 0.153,0.145 0.254,0.855 0.668,1.101 0.937,1.101 0.125,0 0.215,-0.046 0.215,-0.296 0,-0.094 -0.008,-0.219 -0.097,-0.489 l -0.247,-0.621 z"
         style="fill:#000000;fill-opacity:1;fill-rule:nonzero;stroke:none"
         id="path8406"
         inkscape:connector-curvature="0" /><path
         d="m 347.711,169.687 1.566,1.797 c 0.149,0.176 0.27,0.285 1.391,0.285 l 0,0.582 c -0.754,-0.027 -0.781,-0.027 -1.242,-0.027 -0.391,0 -0.973,0 -1.352,0.027 l 0,-0.582 c 0.258,0 0.539,-0.066 0.539,-0.164 0,-0.027 -0.066,-0.121 -0.093,-0.149 l -1.176,-1.324 -1.336,1.637 0.566,0 0,0.582 c -0.308,-0.027 -1.226,-0.027 -1.594,-0.027 -0.406,0 -1.132,0 -1.511,0.027 l 0,-0.582 0.957,0 2.109,-2.566 -1.758,-1.989 c -0.16,-0.187 -0.254,-0.281 -1.375,-0.281 l 0,-0.582 c 0.809,0.027 0.836,0.027 1.254,0.027 0.391,0 0.961,0 1.34,-0.027 l 0,0.582 c -0.258,0 -0.543,0.066 -0.543,0.16 0,0.016 0,0.027 0.094,0.137 l 1.351,1.527 1.5,-1.824 -0.566,0 0,-0.582 c 0.324,0.027 1.23,0.027 1.606,0.027 0.406,0 1.124,0 1.5,-0.027 l 0,0.582 -0.946,0 -2.281,2.754 z"
         style="fill:#000000;fill-opacity:1;fill-rule:nonzero;stroke:none"
         id="path8408"
         inkscape:connector-curvature="0" /><path
         d="m 355.633,166.738 c 0,0.882 -0.629,1.558 -1.567,1.558 -1.277,0 -2.519,-1.242 -2.519,-2.504 0,-0.918 0.648,-1.558 1.566,-1.558 1.285,0 2.52,1.261 2.52,2.504 z m -2.512,-2.25 c -0.316,0 -0.848,0.16 -0.848,0.988 0,0.371 0.172,1.344 0.606,1.902 0.441,0.567 0.937,0.668 1.18,0.668 0.367,0 0.843,-0.226 0.843,-0.984 0,-0.359 -0.16,-1.215 -0.504,-1.754 -0.332,-0.516 -0.828,-0.82 -1.277,-0.82 z"
         style="fill:#000000;fill-opacity:1;fill-rule:nonzero;stroke:none"
         id="path8410"
         inkscape:connector-curvature="0" /><g
         id="g8414"
         transform="matrix(1,0,0,-1,0,264.94861)"><path
           d="m 76,87.117 7.715,51.43"
           style="fill:none;stroke:#000000;stroke-width:0.80000001;stroke-linecap:butt;stroke-linejoin:miter;stroke-miterlimit:4;stroke-dasharray:none;stroke-opacity:1"
           id="path8416"
           inkscape:connector-curvature="0" /></g><g
         id="g8418"
         transform="matrix(-0.15,1,1,0.15,0,264.94861)"><path
           d="m -139.865,61.548 3.162,-3.167 -11.076,3.167 11.076,3.165 -3.162,-3.165 z"
           style="fill:#000000;fill-opacity:1;fill-rule:evenodd;stroke:#000000;stroke-width:0.79114902;stroke-linecap:butt;stroke-linejoin:miter;stroke-miterlimit:4;stroke-dasharray:none;stroke-opacity:1"
           id="path8420"
           inkscape:connector-curvature="0" /></g><g
         id="g8422"
         transform="matrix(1,0,0,-1,0,264.94861)"><path
           d="m 166.855,236.262 128,-149.145"
           style="fill:none;stroke:#d7d7d7;stroke-width:0.80000001;stroke-linecap:butt;stroke-linejoin:miter;stroke-miterlimit:4;stroke-dasharray:4.8, 4.8;stroke-dashoffset:0;stroke-opacity:1"
           id="path8424"
           inkscape:connector-curvature="0" /></g><g
         id="g8426"
         transform="matrix(1,0,0,-1,0,264.94861)"><path
           d="M 415.43,190.547 362.855,87.117"
           style="fill:none;stroke:#d7d7d7;stroke-width:0.80000001;stroke-linecap:butt;stroke-linejoin:miter;stroke-miterlimit:4;stroke-dasharray:4.8, 4.8;stroke-dashoffset:0;stroke-opacity:1"
           id="path8428"
           inkscape:connector-curvature="0" /></g><g
         id="g8430"
         transform="matrix(1,0,0,-1,0,264.94861)"><path
           d="m 308.855,224.262 74.575,40"
           style="fill:none;stroke:#000000;stroke-width:0.80000001;stroke-linecap:butt;stroke-linejoin:miter;stroke-miterlimit:4;stroke-dasharray:4.8, 4.8;stroke-dashoffset:0;stroke-opacity:1"
           id="path8432"
           inkscape:connector-curvature="0" /></g><g
         id="g8434"
         transform="matrix(-1,0.536398,0.536398,1,0,264.94861)"><path
           d="m -400.785,-45.5 2.821,-2.818 -9.871,2.819 9.872,2.821 -2.822,-2.822 z"
           style="fill:#000000;fill-opacity:1;fill-rule:evenodd;stroke:#000000;stroke-width:0.704983;stroke-linecap:butt;stroke-linejoin:miter;stroke-miterlimit:4;stroke-dasharray:none;stroke-opacity:1"
           id="path8436"
           inkscape:connector-curvature="0" /></g><path
         d="m 376.516,27.195 c -0.164,-0.149 -0.664,-0.621 -0.664,-0.813 0,-0.133 0.125,-0.254 0.257,-0.254 0.121,0 0.176,0.078 0.27,0.215 0.324,0.406 0.691,0.66 1,0.836 0.137,0.082 0.23,0.125 0.23,0.274 0,0.121 -0.109,0.187 -0.187,0.253 -0.379,0.258 -0.473,0.622 -0.516,0.786 -0.039,0.109 -0.082,0.269 -0.269,0.269 -0.082,0 -0.242,-0.055 -0.242,-0.258 0,-0.121 0.082,-0.445 0.335,-0.808 l -4.539,0 c -0.23,0 -0.457,0 -0.457,-0.258 0,-0.242 0.243,-0.242 0.457,-0.242 l 4.325,0 z"
         style="fill:#000000;fill-opacity:1;fill-rule:nonzero;stroke:none"
         id="path8438"
         inkscape:connector-curvature="0" /><path
         d="m 377.297,24.21 c 0,0.391 -0.109,0.891 -0.582,0.891 -0.27,0 -0.578,-0.34 -0.578,-0.609 0,-0.122 0.054,-0.204 0.16,-0.325 0.203,-0.23 0.461,-0.593 0.461,-1.226 0,-0.488 -0.297,-1.258 -0.516,-1.676 -0.375,-0.746 -1,-1.379 -1.699,-1.379 -0.852,0 -1.176,0.539 -1.324,1.297 0.148,0.352 0.457,1.23 0.457,1.582 0,0.148 -0.055,0.27 -0.227,0.27 -0.097,0 -0.203,-0.055 -0.273,-0.165 -0.188,-0.296 -0.364,-1.363 -0.352,-1.648 -0.254,-0.5 -0.984,-1.336 -1.847,-1.336 -0.907,0 -1.149,0.797 -1.149,1.567 0,1.406 0.875,2.632 1.121,2.972 0.133,0.203 0.227,0.336 0.227,0.363 0,0.098 -0.051,0.247 -0.172,0.247 -0.219,0 -0.285,-0.176 -0.395,-0.34 -0.687,-1.067 -1.175,-2.567 -1.175,-3.864 0,-0.836 0.312,-1.836 1.324,-1.836 1.121,0 1.824,0.958 2.109,1.473 0.106,-0.758 0.512,-1.473 1.5,-1.473 1.028,0 1.676,0.903 2.16,2 0.352,0.782 0.77,2.469 0.77,3.215 z"
         style="fill:#000000;fill-opacity:1;fill-rule:nonzero;stroke:none"
         id="path8440"
         inkscape:connector-curvature="0" /><path
         d="m 377.949,16.015 c -0.074,-0.289 -0.094,-0.363 -0.453,-0.363 -0.125,0 -0.234,0 -0.234,-0.168 0,-0.082 0.082,-0.129 0.129,-0.129 0.089,0 0.125,0.027 0.789,0.027 0.648,0 0.84,-0.027 0.902,-0.027 0.035,0 0.172,0 0.172,0.172 0,0.125 -0.125,0.125 -0.234,0.125 -0.434,0 -0.434,0.054 -0.434,0.136 0,0.063 0.164,0.704 0.434,1.758 0.117,-0.207 0.394,-0.531 0.882,-0.531 1.106,0 2.262,1.277 2.262,2.582 0,0.891 -0.578,1.477 -1.297,1.477 -0.543,0 -0.972,-0.368 -1.234,-0.637 -0.192,0.637 -0.793,0.637 -0.883,0.637 -0.324,0 -0.551,-0.207 -0.695,-0.485 -0.207,-0.406 -0.305,-0.867 -0.305,-0.89 0,-0.082 0.062,-0.118 0.133,-0.118 0.117,0 0.129,0.036 0.191,0.27 0.117,0.457 0.278,0.973 0.649,0.973 0.222,0 0.289,-0.207 0.289,-0.426 0,-0.09 -0.039,-0.305 -0.055,-0.375 l -1.008,-4.008 z m 1.656,3.863 c 0.043,0.153 0.043,0.172 0.18,0.332 0.34,0.407 0.731,0.614 1.055,0.614 0.449,0 0.621,-0.442 0.621,-0.848 0,-0.332 -0.199,-1.297 -0.469,-1.828 -0.234,-0.485 -0.668,-0.883 -1.09,-0.883 -0.613,0 -0.757,0.703 -0.757,0.766 0,0.019 0.019,0.117 0.027,0.144 l 0.433,1.703 z"
         style="fill:#000000;fill-opacity:1;fill-rule:nonzero;stroke:none"
         id="path8442"
         inkscape:connector-curvature="0" /><path
         d="m 332.527,256.804 c -0.472,-0.797 -0.929,-1.07 -1.578,-1.109 -0.148,-0.012 -0.258,-0.012 -0.258,-0.258 0,-0.078 0.067,-0.133 0.161,-0.133 0.246,0 0.851,0.027 1.097,0.027 0.391,0 0.824,-0.027 1.199,-0.027 0.082,0 0.247,0 0.247,0.254 0,0.125 -0.11,0.137 -0.192,0.137 -0.308,0.027 -0.566,0.136 -0.566,0.461 0,0.187 0.082,0.336 0.258,0.632 l 1.027,1.704 3.441,0 c 0.016,-0.122 0.016,-0.231 0.028,-0.352 0.043,-0.352 0.203,-1.758 0.203,-2.012 0,-0.406 -0.688,-0.433 -0.906,-0.433 -0.149,0 -0.297,0 -0.297,-0.242 0,-0.149 0.125,-0.149 0.203,-0.149 0.23,0 0.5,0.027 0.73,0.027 l 0.77,0 c 0.824,0 1.418,-0.027 1.433,-0.027 0.094,0 0.243,0 0.243,0.254 0,0.137 -0.122,0.137 -0.325,0.137 -0.742,0 -0.757,0.121 -0.797,0.527 l -0.824,8.43 c -0.027,0.269 -0.082,0.297 -0.23,0.297 -0.133,0 -0.215,-0.028 -0.336,-0.231 l -4.731,-7.914 z m 1.621,2.078 2.715,4.539 0.461,-4.539 -3.176,0 z"
         style="fill:#000000;fill-opacity:1;fill-rule:nonzero;stroke:none"
         id="path8444"
         inkscape:connector-curvature="0" /><g
         id="g8446"
         transform="matrix(1,0,0,-1,0,264.94861)"><path
           d="m 273.41,13.668 144.09,0"
           style="fill:none;stroke:#000000;stroke-width:0.80000001;stroke-linecap:butt;stroke-linejoin:miter;stroke-miterlimit:4;stroke-dasharray:none;stroke-opacity:1"
           id="path8448"
           inkscape:connector-curvature="0" /></g><g
         id="g8450"
         transform="matrix(1,0,0,-1,0,264.94861)"><path
           d="m 281.41,13.668 3.203,-3.199 -11.203,3.199 11.203,3.203 -3.203,-3.203 z"
           style="fill:#000000;fill-opacity:1;fill-rule:evenodd;stroke:#000000;stroke-width:0.80000001;stroke-linecap:butt;stroke-linejoin:miter;stroke-miterlimit:4;stroke-dasharray:none;stroke-opacity:1"
           id="path8452"
           inkscape:connector-curvature="0" /></g><g
         id="g8454"
         transform="matrix(-1,0,0,1,0,264.94861)"><path
           d="m -409.5,-13.668 3.199,-3.203 -11.199,3.203 11.199,3.199 -3.199,-3.199 z"
           style="fill:#000000;fill-opacity:1;fill-rule:evenodd;stroke:#000000;stroke-width:0.80000001;stroke-linecap:butt;stroke-linejoin:miter;stroke-miterlimit:4;stroke-dasharray:none;stroke-opacity:1"
           id="path8456"
           inkscape:connector-curvature="0" /></g><g
         id="g8458"
         transform="matrix(1,0,0,-1,0,264.94861)"><path
           d="m 272.168,86.965 0,-79.602"
           style="fill:none;stroke:#000000;stroke-width:0.80000001;stroke-linecap:butt;stroke-linejoin:miter;stroke-miterlimit:4;stroke-dasharray:none;stroke-opacity:1"
           id="path8460"
           inkscape:connector-curvature="0" /></g><g
         id="g8462"
         transform="matrix(1,0,0,-1,0,264.94861)"><path
           d="m 419.488,87.77 0,-82.832"
           style="fill:none;stroke:#000000;stroke-width:0.80000001;stroke-linecap:butt;stroke-linejoin:miter;stroke-miterlimit:4;stroke-dasharray:none;stroke-opacity:1"
           id="path8464"
           inkscape:connector-curvature="0" /></g><g
         id="g8466"
         transform="matrix(1,0,0,-1,0,264.94861)"><path
           d="m 93.715,201.402 111.43,-59.714"
           style="fill:none;stroke:#d7d7d7;stroke-width:0.80000001;stroke-linecap:butt;stroke-linejoin:miter;stroke-miterlimit:4;stroke-dasharray:4.8, 4.8;stroke-dashoffset:0;stroke-opacity:1"
           id="path8468"
           inkscape:connector-curvature="0" /></g><g
         id="g8470"
         transform="matrix(1,0,0,-1,0,264.94861)"><path
           d="m 138,181.332 15.07,-15.215"
           style="fill:none;stroke:#ff2a2a;stroke-width:0.80000001;stroke-linecap:butt;stroke-linejoin:miter;stroke-miterlimit:4;stroke-dasharray:none;stroke-opacity:1"
           id="path8472"
           inkscape:connector-curvature="0" /></g><g
         id="g8474"
         transform="matrix(1,0,0,-1,0,264.94861)"><path
           d="m 153.215,181.332 c -0.285,0 -15.5,-15.285 -15.5,-15.285"
           style="fill:none;stroke:#ff2a2a;stroke-width:0.80000001;stroke-linecap:butt;stroke-linejoin:miter;stroke-miterlimit:4;stroke-dasharray:none;stroke-opacity:1"
           id="path8476"
           inkscape:connector-curvature="0" /></g><path
         d="m 393.402,227.796 1.567,1.797 c 0.148,0.176 0.269,0.285 1.39,0.285 l 0,0.578 c -0.757,-0.027 -0.785,-0.027 -1.242,-0.027 -0.39,0 -0.972,0 -1.351,0.027 l 0,-0.578 c 0.257,0 0.539,-0.07 0.539,-0.164 0,-0.027 -0.067,-0.121 -0.094,-0.148 l -1.176,-1.324 -1.336,1.636 0.567,0 0,0.578 c -0.309,-0.027 -1.231,-0.027 -1.594,-0.027 -0.406,0 -1.133,0 -1.512,0.027 l 0,-0.578 0.957,0 2.11,-2.57 -1.758,-1.984 c -0.16,-0.188 -0.258,-0.286 -1.379,-0.286 l 0,-0.578 c 0.812,0.028 0.84,0.028 1.258,0.028 0.39,0 0.961,0 1.336,-0.028 l 0,0.578 c -0.254,0 -0.539,0.071 -0.539,0.165 0,0.011 0,0.027 0.093,0.136 l 1.352,1.524 1.5,-1.825 -0.567,0 0,-0.578 c 0.325,0.028 1.231,0.028 1.606,0.028 0.406,0 1.121,0 1.5,-0.028 l 0,0.578 -0.945,0 -2.282,2.758 z"
         style="fill:#000000;fill-opacity:1;fill-rule:nonzero;stroke:none"
         id="path8478"
         inkscape:connector-curvature="0" /><path
         d="m 398.145,223.218 c 0.324,0.332 0.425,0.43 1.214,1.09 0.102,0.078 0.731,0.602 0.973,0.836 0.57,0.559 0.922,1.055 0.922,1.152 0,0.082 -0.074,0.11 -0.137,0.11 -0.09,0 -0.097,-0.02 -0.187,-0.153 -0.282,-0.418 -0.481,-0.488 -0.641,-0.488 -0.172,0 -0.281,0.07 -0.461,0.254 -0.234,0.223 -0.414,0.387 -0.699,0.387 -0.723,0 -1.172,-0.813 -1.172,-1.055 0,-0.008 0,-0.109 0.145,-0.109 0.089,0 0.105,0.039 0.144,0.136 0.117,0.262 0.504,0.352 0.774,0.352 0.207,0 0.421,-0.055 0.64,-0.117 0.375,-0.102 0.457,-0.102 0.664,-0.102 -0.187,-0.195 -0.441,-0.449 -1.133,-1.016 -0.379,-0.316 -0.757,-0.621 -1,-0.855 -0.668,-0.656 -0.957,-1.098 -0.957,-1.187 0,-0.083 0.067,-0.11 0.137,-0.11 0.09,0 0.109,0.027 0.152,0.09 0.18,0.27 0.461,0.551 0.801,0.551 0.207,0 0.297,-0.082 0.469,-0.254 0.289,-0.277 0.453,-0.387 0.711,-0.387 0.937,0 1.504,1.117 1.504,1.395 0,0.082 -0.063,0.117 -0.133,0.117 -0.102,0 -0.117,-0.055 -0.152,-0.145 -0.172,-0.449 -0.668,-0.691 -1.118,-0.691 -0.171,0 -0.371,0.043 -0.64,0.117 -0.379,0.098 -0.469,0.098 -0.602,0.098 -0.09,0 -0.144,0 -0.218,-0.016 z"
         style="fill:#000000;fill-opacity:1;fill-rule:nonzero;stroke:none"
         id="path8480"
         inkscape:connector-curvature="0" /><path
         d="m 301.359,36.226 1.567,1.797 c 0.148,0.176 0.269,0.281 1.39,0.281 l 0,0.582 c -0.757,-0.027 -0.785,-0.027 -1.242,-0.027 -0.39,0 -0.972,0 -1.351,0.027 l 0,-0.582 c 0.257,0 0.539,-0.066 0.539,-0.16 0,-0.027 -0.067,-0.121 -0.094,-0.149 l -1.176,-1.324 -1.336,1.633 0.567,0 0,0.582 c -0.309,-0.027 -1.231,-0.027 -1.594,-0.027 -0.406,0 -1.133,0 -1.512,0.027 l 0,-0.582 0.957,0 2.11,-2.566 -1.758,-1.985 c -0.16,-0.191 -0.258,-0.285 -1.379,-0.285 l 0,-0.582 c 0.812,0.027 0.84,0.027 1.258,0.027 0.39,0 0.961,0 1.336,-0.027 l 0,0.582 c -0.254,0 -0.539,0.067 -0.539,0.164 0,0.012 0,0.028 0.093,0.133 l 1.352,1.527 1.5,-1.824 -0.567,0 0,-0.582 c 0.325,0.027 1.227,0.027 1.606,0.027 0.406,0 1.121,0 1.5,-0.027 l 0,0.582 -0.945,0 -2.282,2.758 z"
         style="fill:#000000;fill-opacity:1;fill-rule:nonzero;stroke:none"
         id="path8482"
         inkscape:connector-curvature="0" /><path
         d="m 305.266,29.773 c -0.075,-0.289 -0.09,-0.363 -0.45,-0.363 -0.128,0 -0.234,0 -0.234,-0.168 0,-0.082 0.078,-0.129 0.125,-0.129 0.09,0 0.125,0.027 0.793,0.027 0.648,0 0.836,-0.027 0.898,-0.027 0.04,0 0.172,0 0.172,0.172 0,0.125 -0.125,0.125 -0.234,0.125 -0.43,0 -0.43,0.054 -0.43,0.136 0,0.063 0.16,0.703 0.43,1.758 0.117,-0.207 0.398,-0.531 0.883,-0.531 1.109,0 2.261,1.277 2.261,2.582 0,0.894 -0.578,1.476 -1.296,1.476 -0.539,0 -0.973,-0.367 -1.235,-0.636 -0.187,0.636 -0.793,0.636 -0.883,0.636 -0.324,0 -0.55,-0.207 -0.695,-0.484 -0.207,-0.406 -0.305,-0.863 -0.305,-0.891 0,-0.082 0.063,-0.117 0.137,-0.117 0.117,0 0.125,0.035 0.188,0.27 0.117,0.457 0.281,0.972 0.648,0.972 0.227,0 0.289,-0.207 0.289,-0.421 0,-0.094 -0.035,-0.309 -0.055,-0.379 l -1.007,-4.008 z m 1.656,3.863 c 0.047,0.152 0.047,0.172 0.18,0.332 0.343,0.406 0.73,0.613 1.054,0.613 0.449,0 0.621,-0.441 0.621,-0.847 0,-0.332 -0.199,-1.297 -0.468,-1.828 -0.235,-0.485 -0.664,-0.883 -1.09,-0.883 -0.614,0 -0.758,0.703 -0.758,0.765 0,0.02 0.019,0.118 0.027,0.145 l 0.434,1.703 z"
         style="fill:#000000;fill-opacity:1;fill-rule:nonzero;stroke:none"
         id="path8484"
         inkscape:connector-curvature="0" /><path
         d="m 344.598,256.038 c 0,0.879 -0.633,1.555 -1.571,1.555 -1.277,0 -2.519,-1.242 -2.519,-2.504 0,-0.918 0.648,-1.554 1.566,-1.554 1.289,0 2.524,1.257 2.524,2.503 z m -2.516,-2.253 c -0.312,0 -0.844,0.164 -0.844,0.992 0,0.367 0.168,1.34 0.602,1.898 0.441,0.567 0.937,0.668 1.18,0.668 0.371,0 0.847,-0.226 0.847,-0.98 0,-0.364 -0.164,-1.219 -0.504,-1.758 -0.336,-0.512 -0.828,-0.82 -1.281,-0.82 z"
         style="fill:#000000;fill-opacity:1;fill-rule:nonzero;stroke:none"
         id="path8486"
         inkscape:connector-curvature="0" /><path
         d="m 341.145,177.999 53.285,59.43"
         style="fill:#e2e2e2;fill-opacity:0.42713599;fill-rule:evenodd;stroke:none"
         id="path8488"
         inkscape:connector-curvature="0" /><g
         id="g8490"
         transform="matrix(1,0,0,-1,0,264.94861)"><path
           d="M 341.145,86.949 394.43,27.52"
           style="fill:none;stroke:#000000;stroke-width:0.74081498;stroke-linecap:butt;stroke-linejoin:miter;stroke-miterlimit:4;stroke-dasharray:none;stroke-opacity:1"
           id="path8492"
           inkscape:connector-curvature="0" /></g><path
         d="m 340.715,178.57 38,69.715"
         style="fill:#e2e2e2;fill-opacity:0.42713599;fill-rule:evenodd;stroke:none"
         id="path8494"
         inkscape:connector-curvature="0" /><g
         id="g8496"
         transform="matrix(1,0,0,-1,0,264.94861)"><path
           d="m 340.715,86.379 38,-69.715"
           style="fill:none;stroke:#000000;stroke-width:0.74081498;stroke-linecap:butt;stroke-linejoin:miter;stroke-miterlimit:4;stroke-dasharray:none;stroke-opacity:1"
           id="path8498"
           inkscape:connector-curvature="0" /></g><g
         id="g8500"
         transform="matrix(1,-0.570133,-0.570133,-1,0,264.94861)"><path
           d="m 309.518,-149.81 c 0.001,2.351 -3.68,4.254 -8.215,4.254 -4.54,-0.002 -8.219,-1.904 -8.218,-4.253 0.001,-2.348 3.677,-4.252 8.215,-4.254 4.54,0.002 8.219,1.905 8.218,4.253 z"
           style="fill:none;stroke:#000000;stroke-width:0.64356601;stroke-linecap:butt;stroke-linejoin:miter;stroke-miterlimit:4;stroke-dasharray:none;stroke-opacity:1"
           id="path8502"
           inkscape:connector-curvature="0" /></g><path
         d="m 406.602,239.238 -0.297,0 c -0.067,-0.352 -0.133,-0.703 -0.243,-0.985 -0.066,-0.215 -0.109,-0.324 -0.89,-0.324 l -1.07,0 c 0.164,0.758 0.554,1.406 1.109,2.242 0.637,0.985 1.258,1.973 1.258,3.094 0,1.863 -1.785,3.375 -4.039,3.375 -2.27,0 -4.043,-1.523 -4.043,-3.375 0,-1.109 0.609,-2.082 1.246,-3.066 0.566,-0.879 0.972,-1.512 1.121,-2.27 l -1.07,0 c -0.782,0 -0.821,0.109 -0.891,0.309 -0.105,0.285 -0.176,0.675 -0.242,1 l -0.297,0 0.434,-2.106 2.093,0 c 0.297,0 0.324,0 0.324,0.242 0,0.961 -0.433,2.133 -0.703,2.825 -0.394,1.066 -0.757,2.054 -0.757,3.078 0,2.082 1.445,3.093 2.785,3.093 1.336,0 2.781,-1.011 2.781,-3.093 0,-1.024 -0.379,-2.039 -0.758,-3.039 -0.23,-0.649 -0.703,-1.891 -0.703,-2.848 0,-0.258 0.043,-0.258 0.34,-0.258 l 2.082,0 0.43,2.106 z"
         style="fill:#000000;fill-opacity:1;fill-rule:nonzero;stroke:none"
         id="path8504"
         inkscape:connector-curvature="0" /><path
         d="m 411.66,237.519 c 0,0.883 -0.629,1.559 -1.566,1.559 -1.278,0 -2.52,-1.243 -2.52,-2.504 0,-0.918 0.649,-1.559 1.567,-1.559 1.289,0 2.519,1.262 2.519,2.504 z m -2.512,-2.25 c -0.316,0 -0.847,0.16 -0.847,0.988 0,0.371 0.172,1.344 0.605,1.903 0.442,0.566 0.938,0.664 1.18,0.664 0.367,0 0.848,-0.223 0.848,-0.981 0,-0.359 -0.164,-1.215 -0.504,-1.758 -0.336,-0.511 -0.832,-0.816 -1.282,-0.816 z"
         style="fill:#000000;fill-opacity:1;fill-rule:nonzero;stroke:none"
         id="path8506"
         inkscape:connector-curvature="0" /><g
         id="g8508"
         transform="matrix(1,0,0,-1,0,264.94861)"><path
           d="m 352.855,69.234 c 0,0 -1.14,-6.285 -12.285,-4.855"
           style="fill:none;stroke:#000000;stroke-width:0.80000001;stroke-linecap:butt;stroke-linejoin:miter;stroke-miterlimit:4;stroke-dasharray:none;stroke-opacity:1"
           id="path8510"
           inkscape:connector-curvature="0" /></g><g
         id="g8512"
         transform="matrix(1,0,0,-1,0,264.94861)"><path
           d="m 330.285,133.234 c 0,0 4.285,4.856 10.285,0.571"
           style="fill:none;stroke:#000000;stroke-width:0.80000001;stroke-linecap:butt;stroke-linejoin:miter;stroke-miterlimit:4;stroke-dasharray:none;stroke-opacity:1"
           id="path8514"
           inkscape:connector-curvature="0" /></g></g></g></svg>